{
  "asset": {
    "version": "2.0",
    "generator": "THREE.GLTFExporter"
  },
  "scenes": [
    {
      "nodes": [
        1
      ],
      "name": "AuxScene"
    }
  ],
  "scene": 0,
  "nodes": [
    {
      "matrix": [
        67.95687057253245,
        -34.074694920770284,
        -64.96752194785103,
        0,
        -30.529730993452937,
        67.38979837635368,
        -67.27964476914097,
        0,
        66.70682083895906,
        65.55555580270776,
        35.393088065836416,
        0,
        302.6104431152344,
        46.316463470458984,
        46.18824005126953,
        1
      ],
      "name": "Cube_cell018",
      "mesh": 0
    },
    {
      "children": [
        0
      ]
    }
  ],
  "bufferViews": [
    {
      "buffer": 0,
      "byteOffset": 0,
      "byteLength": 139608,
      "target": 34962,
      "byteStride": 12
    },
    {
      "buffer": 0,
      "byteOffset": 139608,
      "byteLength": 139608,
      "target": 34962,
      "byteStride": 12
    },
    {
      "buffer": 0,
      "byteOffset": 279216,
      "byteLength": 93072,
      "target": 34962,
      "byteStride": 8
    },
    {
      "buffer": 0,
      "byteOffset": 372288,
      "byteLength": 23268,
      "target": 34963
    }
  ],
  "buffers": [
    {
      "byteLength": 395556,
      "uri": "data:application/octet-stream;base64,"
    }
  ],
  "accessors": [
    {
      "bufferView": 0,
      "componentType": 5126,
      "count": 11634,
      "max": [
        7.487817287445068,
        7.509713649749756,
        2.5475878715515137
      ],
      "min": [
        -7.512170314788818,
        -3.2302305698394775,
        -7.935309410095215
      ],
      "type": "VEC3"
    },
    {
      "bufferView": 1,
      "componentType": 5126,
      "count": 11634,
      "max": [
        0.9999999403953552,
        0.9994232654571533,
        0.9998188614845276
      ],
      "min": [
        -0.9997813701629639,
        -0.9999560117721558,
        -0.9994934797286987
      ],
      "type": "VEC3"
    },
    {
      "bufferView": 2,
      "componentType": 5126,
      "count": 11634,
      "max": [
        1,
        1
      ],
      "min": [
        0,
        0
      ],
      "type": "VEC2"
    },
    {
      "bufferView": 3,
      "componentType": 5123,
      "count": 11634,
      "max": [
        11633
      ],
      "min": [
        0
      ],
      "type": "SCALAR"
    }
  ],
  "materials": [
    {
      "pbrMetallicRoughness": {
        "baseColorFactor": [
          0.8,
          0.8,
          0.8,
          1
        ],
        "metallicFactor": 0.5,
        "roughnessFactor": 0.5
      }
    }
  ],
  "meshes": [
    {
      "primitives": [
        {
          "mode": 4,
          "attributes": {
            "POSITION": 0,
            "NORMAL": 1,
            "TEXCOORD_0": 2
          },
          "indices": 3,
          "material": 0
        }
      ]
    }
  ]
}