{
  "asset": {
    "version": "2.0",
    "generator": "THREE.GLTFExporter"
  },
  "scenes": [
    {
      "nodes": [
        10
      ],
      "name": "AuxScene"
    }
  ],
  "scene": 0,
  "nodes": [
    {
      "name": "pasted__polySurface73 flower10:Mesh group15",
      "mesh": 0
    },
    {
      "name": "pasted__polySurface74 flower12:Mesh group17",
      "mesh": 1
    },
    {
      "name": "flower12:Mesh group17 pasted__polySurface71",
      "mesh": 2
    },
    {
      "name": "flower12:Mesh group17 pasted__polySurface70",
      "mesh": 3
    },
    {
      "name": "flower10:Mesh group15 pasted__polySurface61",
      "mesh": 4
    },
    {
      "name": "flower10:Mesh group15 pasted__polySurface68",
      "mesh": 5
    },
    {
      "name": "pasted__polySurface55 flower11:Mesh group16",
      "mesh": 6
    },
    {
      "name": "flower12:Mesh group17 pasted__polySurface69",
      "mesh": 7
    },
    {
      "name": "flower10:Mesh group15 pasted__polySurface66",
      "mesh": 8
    },
    {
      "name": "flower12:Mesh group17 pasted__polySurface75",
      "mesh": 9
    },
    {
      "children": [
        0,
        1,
        2,
        3,
        4,
        5,
        6,
        7,
        8,
        9
      ]
    }
  ],
  "bufferViews": [
    {
      "buffer": 0,
      "byteOffset": 0,
      "byteLength": 8928,
      "target": 34962,
      "byteStride": 12
    },
    {
      "buffer": 0,
      "byteOffset": 8928,
      "byteLength": 8928,
      "target": 34962,
      "byteStride": 12
    },
    {
      "buffer": 0,
      "byteOffset": 17856,
      "byteLength": 5952,
      "target": 34962,
      "byteStride": 8
    },
    {
      "buffer": 0,
      "byteOffset": 23808,
      "byteLength": 1488,
      "target": 34963
    },
    {
      "buffer": 0,
      "byteOffset": 25296,
      "byteLength": 8208,
      "target": 34962,
      "byteStride": 12
    },
    {
      "buffer": 0,
      "byteOffset": 33504,
      "byteLength": 8208,
      "target": 34962,
      "byteStride": 12
    },
    {
      "buffer": 0,
      "byteOffset": 41712,
      "byteLength": 5472,
      "target": 34962,
      "byteStride": 8
    },
    {
      "buffer": 0,
      "byteOffset": 47184,
      "byteLength": 1368,
      "target": 34963
    },
    {
      "buffer": 0,
      "byteOffset": 48552,
      "byteLength": 8208,
      "target": 34962,
      "byteStride": 12
    },
    {
      "buffer": 0,
      "byteOffset": 56760,
      "byteLength": 8208,
      "target": 34962,
      "byteStride": 12
    },
    {
      "buffer": 0,
      "byteOffset": 64968,
      "byteLength": 5472,
      "target": 34962,
      "byteStride": 8
    },
    {
      "buffer": 0,
      "byteOffset": 70440,
      "byteLength": 1368,
      "target": 34963
    },
    {
      "buffer": 0,
      "byteOffset": 71808,
      "byteLength": 8208,
      "target": 34962,
      "byteStride": 12
    },
    {
      "buffer": 0,
      "byteOffset": 80016,
      "byteLength": 8208,
      "target": 34962,
      "byteStride": 12
    },
    {
      "buffer": 0,
      "byteOffset": 88224,
      "byteLength": 5472,
      "target": 34962,
      "byteStride": 8
    },
    {
      "buffer": 0,
      "byteOffset": 93696,
      "byteLength": 1368,
      "target": 34963
    },
    {
      "buffer": 0,
      "byteOffset": 95064,
      "byteLength": 8928,
      "target": 34962,
      "byteStride": 12
    },
    {
      "buffer": 0,
      "byteOffset": 103992,
      "byteLength": 8928,
      "target": 34962,
      "byteStride": 12
    },
    {
      "buffer": 0,
      "byteOffset": 112920,
      "byteLength": 5952,
      "target": 34962,
      "byteStride": 8
    },
    {
      "buffer": 0,
      "byteOffset": 118872,
      "byteLength": 1488,
      "target": 34963
    },
    {
      "buffer": 0,
      "byteOffset": 120360,
      "byteLength": 8928,
      "target": 34962,
      "byteStride": 12
    },
    {
      "buffer": 0,
      "byteOffset": 129288,
      "byteLength": 8928,
      "target": 34962,
      "byteStride": 12
    },
    {
      "buffer": 0,
      "byteOffset": 138216,
      "byteLength": 5952,
      "target": 34962,
      "byteStride": 8
    },
    {
      "buffer": 0,
      "byteOffset": 144168,
      "byteLength": 1488,
      "target": 34963
    },
    {
      "buffer": 0,
      "byteOffset": 145656,
      "byteLength": 8928,
      "target": 34962,
      "byteStride": 12
    },
    {
      "buffer": 0,
      "byteOffset": 154584,
      "byteLength": 8928,
      "target": 34962,
      "byteStride": 12
    },
    {
      "buffer": 0,
      "byteOffset": 163512,
      "byteLength": 5952,
      "target": 34962,
      "byteStride": 8
    },
    {
      "buffer": 0,
      "byteOffset": 169464,
      "byteLength": 1488,
      "target": 34963
    },
    {
      "buffer": 0,
      "byteOffset": 170952,
      "byteLength": 8208,
      "target": 34962,
      "byteStride": 12
    },
    {
      "buffer": 0,
      "byteOffset": 179160,
      "byteLength": 8208,
      "target": 34962,
      "byteStride": 12
    },
    {
      "buffer": 0,
      "byteOffset": 187368,
      "byteLength": 5472,
      "target": 34962,
      "byteStride": 8
    },
    {
      "buffer": 0,
      "byteOffset": 192840,
      "byteLength": 1368,
      "target": 34963
    },
    {
      "buffer": 0,
      "byteOffset": 194208,
      "byteLength": 8928,
      "target": 34962,
      "byteStride": 12
    },
    {
      "buffer": 0,
      "byteOffset": 203136,
      "byteLength": 8928,
      "target": 34962,
      "byteStride": 12
    },
    {
      "buffer": 0,
      "byteOffset": 212064,
      "byteLength": 5952,
      "target": 34962,
      "byteStride": 8
    },
    {
      "buffer": 0,
      "byteOffset": 218016,
      "byteLength": 1488,
      "target": 34963
    },
    {
      "buffer": 0,
      "byteOffset": 219504,
      "byteLength": 8208,
      "target": 34962,
      "byteStride": 12
    },
    {
      "buffer": 0,
      "byteOffset": 227712,
      "byteLength": 8208,
      "target": 34962,
      "byteStride": 12
    },
    {
      "buffer": 0,
      "byteOffset": 235920,
      "byteLength": 5472,
      "target": 34962,
      "byteStride": 8
    },
    {
      "buffer": 0,
      "byteOffset": 241392,
      "byteLength": 1368,
      "target": 34963
    }
  ],
  "buffers": [
    {
      "byteLength": 242760,
      "uri": "data:application/octet-stream;base64,"
    }
  ],
  "accessors": [
    {
      "bufferView": 0,
      "componentType": 5126,
      "count": 744,
      "max": [
        2.4402310848236084,
        6.164367198944092,
        -6.66294002532959
      ],
      "min": [
        2.074786901473999,
        5.317883014678955,
        -6.926333904266357
      ],
      "type": "VEC3"
    },
    {
      "bufferView": 1,
      "componentType": 5126,
      "count": 744,
      "max": [
        0.8897479772567749,
        0.815759003162384,
        0.9984740018844604
      ],
      "min": [
        -0.8897609710693359,
        -0.9931719899177551,
        -0.999442994594574
      ],
      "type": "VEC3"
    },
    {
      "bufferView": 2,
      "componentType": 5126,
      "count": 744,
      "max": [
        0.42411500215530396,
        0.9885039925575256
      ],
      "min": [
        0.004058000165969133,
        0.44033700227737427
      ],
      "type": "VEC2"
    },
    {
      "bufferView": 3,
      "componentType": 5123,
      "count": 744,
      "max": [
        743
      ],
      "min": [
        0
      ],
      "type": "SCALAR"
    },
    {
      "bufferView": 4,
      "componentType": 5126,
      "count": 684,
      "max": [
        -2.180056095123291,
        7.063868045806885,
        -4.772971153259277
      ],
      "min": [
        -2.6991329193115234,
        6.839594841003418,
        -5.044675827026367
      ],
      "type": "VEC3"
    },
    {
      "bufferView": 5,
      "componentType": 5126,
      "count": 684,
      "max": [
        0.8936859965324402,
        0.9217519760131836,
        0.949150025844574
      ],
      "min": [
        -0.9999009966850281,
        -0.9934729933738708,
        -0.9921619892120361
      ],
      "type": "VEC3"
    },
    {
      "bufferView": 6,
      "componentType": 5126,
      "count": 684,
      "max": [
        0.42411500215530396,
        0.9885039925575256
      ],
      "min": [
        0.004058000165969133,
        0.44033700227737427
      ],
      "type": "VEC2"
    },
    {
      "bufferView": 7,
      "componentType": 5123,
      "count": 684,
      "max": [
        683
      ],
      "min": [
        0
      ],
      "type": "SCALAR"
    },
    {
      "bufferView": 8,
      "componentType": 5126,
      "count": 684,
      "max": [
        -1.2782390117645264,
        4.679055213928223,
        -2.6032350063323975
      ],
      "min": [
        -1.5859379768371582,
        4.439104080200195,
        -3.104949951171875
      ],
      "type": "VEC3"
    },
    {
      "bufferView": 9,
      "componentType": 5126,
      "count": 684,
      "max": [
        0.9642300009727478,
        0.98676598072052,
        0.9998689889907837
      ],
      "min": [
        -0.9779520034790039,
        -0.9994350075721741,
        -0.7735210061073303
      ],
      "type": "VEC3"
    },
    {
      "bufferView": 10,
      "componentType": 5126,
      "count": 684,
      "max": [
        0.42411500215530396,
        0.9885039925575256
      ],
      "min": [
        0.004058000165969133,
        0.44033700227737427
      ],
      "type": "VEC2"
    },
    {
      "bufferView": 11,
      "componentType": 5123,
      "count": 684,
      "max": [
        683
      ],
      "min": [
        0
      ],
      "type": "SCALAR"
    },
    {
      "bufferView": 12,
      "componentType": 5126,
      "count": 684,
      "max": [
        2.4492270946502686,
        5.004497051239014,
        -4.820897102355957
      ],
      "min": [
        1.902461051940918,
        4.7828450202941895,
        -5.031896114349365
      ],
      "type": "VEC3"
    },
    {
      "bufferView": 13,
      "componentType": 5126,
      "count": 684,
      "max": [
        0.8338350057601929,
        0.934473991394043,
        0.9622210264205933
      ],
      "min": [
        -0.9925439953804016,
        -0.9924529790878296,
        -0.9994109869003296
      ],
      "type": "VEC3"
    },
    {
      "bufferView": 14,
      "componentType": 5126,
      "count": 684,
      "max": [
        0.42411500215530396,
        0.9885039925575256
      ],
      "min": [
        0.004058000165969133,
        0.44033700227737427
      ],
      "type": "VEC2"
    },
    {
      "bufferView": 15,
      "componentType": 5123,
      "count": 684,
      "max": [
        683
      ],
      "min": [
        0
      ],
      "type": "SCALAR"
    },
    {
      "bufferView": 16,
      "componentType": 5126,
      "count": 744,
      "max": [
        0.842628002166748,
        5.068421840667725,
        0.0031679999083280563
      ],
      "min": [
        0.33756500482559204,
        4.410806179046631,
        -0.536221981048584
      ],
      "type": "VEC3"
    },
    {
      "bufferView": 17,
      "componentType": 5126,
      "count": 744,
      "max": [
        0.9372919797897339,
        0.9150099754333496,
        0.822064995765686
      ],
      "min": [
        -0.9372919797897339,
        -0.9125819802284241,
        -0.9249789714813232
      ],
      "type": "VEC3"
    },
    {
      "bufferView": 18,
      "componentType": 5126,
      "count": 744,
      "max": [
        0.42411500215530396,
        0.9885039925575256
      ],
      "min": [
        0.004058000165969133,
        0.44033700227737427
      ],
      "type": "VEC2"
    },
    {
      "bufferView": 19,
      "componentType": 5123,
      "count": 744,
      "max": [
        743
      ],
      "min": [
        0
      ],
      "type": "SCALAR"
    },
    {
      "bufferView": 20,
      "componentType": 5126,
      "count": 744,
      "max": [
        2.48935604095459,
        4.953281879425049,
        -1.2543840408325195
      ],
      "min": [
        2.2623579502105713,
        4.484731197357178,
        -1.5832949876785278
      ],
      "type": "VEC3"
    },
    {
      "bufferView": 21,
      "componentType": 5126,
      "count": 744,
      "max": [
        0.9213849902153015,
        0.7865599989891052,
        0.9988759756088257
      ],
      "min": [
        -0.8276399970054626,
        -0.8999890089035034,
        -0.9988759756088257
      ],
      "type": "VEC3"
    },
    {
      "bufferView": 22,
      "componentType": 5126,
      "count": 744,
      "max": [
        0.42411500215530396,
        0.9885039925575256
      ],
      "min": [
        0.004058000165969133,
        0.44033700227737427
      ],
      "type": "VEC2"
    },
    {
      "bufferView": 23,
      "componentType": 5123,
      "count": 744,
      "max": [
        743
      ],
      "min": [
        0
      ],
      "type": "SCALAR"
    },
    {
      "bufferView": 24,
      "componentType": 5126,
      "count": 744,
      "max": [
        0.07854200154542923,
        4.018094062805176,
        4.072897911071777
      ],
      "min": [
        -0.18608899414539337,
        3.41920804977417,
        3.798748016357422
      ],
      "type": "VEC3"
    },
    {
      "bufferView": 25,
      "componentType": 5126,
      "count": 744,
      "max": [
        0.8836020231246948,
        0.6643790006637573,
        0.9693400263786316
      ],
      "min": [
        -0.9225239753723145,
        -0.7891420125961304,
        -0.9694169759750366
      ],
      "type": "VEC3"
    },
    {
      "bufferView": 26,
      "componentType": 5126,
      "count": 744,
      "max": [
        0.42411500215530396,
        0.9885039925575256
      ],
      "min": [
        0.004058000165969133,
        0.44033700227737427
      ],
      "type": "VEC2"
    },
    {
      "bufferView": 27,
      "componentType": 5123,
      "count": 744,
      "max": [
        743
      ],
      "min": [
        0
      ],
      "type": "SCALAR"
    },
    {
      "bufferView": 28,
      "componentType": 5126,
      "count": 684,
      "max": [
        2.6991899013519287,
        5.644935131072998,
        4.42625617980957
      ],
      "min": [
        2.5704190731048584,
        5.407764911651611,
        3.850275993347168
      ],
      "type": "VEC3"
    },
    {
      "bufferView": 29,
      "componentType": 5126,
      "count": 684,
      "max": [
        0.9903609752655029,
        0.8179810047149658,
        0.504243016242981
      ],
      "min": [
        -0.9903640151023865,
        -0.9481959939002991,
        -0.9134770035743713
      ],
      "type": "VEC3"
    },
    {
      "bufferView": 30,
      "componentType": 5126,
      "count": 684,
      "max": [
        0.42411500215530396,
        0.9885039925575256
      ],
      "min": [
        0.004058000165969133,
        0.44033700227737427
      ],
      "type": "VEC2"
    },
    {
      "bufferView": 31,
      "componentType": 5123,
      "count": 684,
      "max": [
        683
      ],
      "min": [
        0
      ],
      "type": "SCALAR"
    },
    {
      "bufferView": 32,
      "componentType": 5126,
      "count": 744,
      "max": [
        0.10537400096654892,
        3.4576470851898193,
        6.019144058227539
      ],
      "min": [
        -0.46121299266815186,
        2.6965858936309814,
        5.749125003814697
      ],
      "type": "VEC3"
    },
    {
      "bufferView": 33,
      "componentType": 5126,
      "count": 744,
      "max": [
        0.7480419874191284,
        0.7837859988212585,
        0.9935100078582764
      ],
      "min": [
        -0.889959990978241,
        -0.7998129725456238,
        -0.9935200214385986
      ],
      "type": "VEC3"
    },
    {
      "bufferView": 34,
      "componentType": 5126,
      "count": 744,
      "max": [
        0.42411500215530396,
        0.9885039925575256
      ],
      "min": [
        0.004058000165969133,
        0.44033700227737427
      ],
      "type": "VEC2"
    },
    {
      "bufferView": 35,
      "componentType": 5123,
      "count": 744,
      "max": [
        743
      ],
      "min": [
        0
      ],
      "type": "SCALAR"
    },
    {
      "bufferView": 36,
      "componentType": 5126,
      "count": 684,
      "max": [
        2.1253790855407715,
        0.3924790024757385,
        10.892091751098633
      ],
      "min": [
        1.6644920110702515,
        0.19016799330711365,
        10.5059175491333
      ],
      "type": "VEC3"
    },
    {
      "bufferView": 37,
      "componentType": 5126,
      "count": 684,
      "max": [
        0.8589720129966736,
        0.9887509942054749,
        0.9669250249862671
      ],
      "min": [
        -0.8620669841766357,
        -0.9912880063056946,
        -0.9330800175666809
      ],
      "type": "VEC3"
    },
    {
      "bufferView": 38,
      "componentType": 5126,
      "count": 684,
      "max": [
        0.42411500215530396,
        0.9885039925575256
      ],
      "min": [
        0.004058000165969133,
        0.44033700227737427
      ],
      "type": "VEC2"
    },
    {
      "bufferView": 39,
      "componentType": 5123,
      "count": 684,
      "max": [
        683
      ],
      "min": [
        0
      ],
      "type": "SCALAR"
    }
  ],
  "materials": [
    {
      "pbrMetallicRoughness": {
        "metallicFactor": 0.5,
        "roughnessFactor": 0.5
      },
      "name": "flower10:flower_yellow"
    },
    {
      "pbrMetallicRoughness": {
        "metallicFactor": 0.5,
        "roughnessFactor": 0.5
      },
      "name": "flower12:flower_yellow"
    },
    {
      "pbrMetallicRoughness": {
        "metallicFactor": 0.5,
        "roughnessFactor": 0.5
      },
      "name": "flower11:flower_yellow"
    }
  ],
  "meshes": [
    {
      "primitives": [
        {
          "mode": 4,
          "attributes": {
            "POSITION": 0,
            "NORMAL": 1,
            "TEXCOORD_0": 2
          },
          "indices": 3,
          "material": 0
        }
      ]
    },
    {
      "primitives": [
        {
          "mode": 4,
          "attributes": {
            "POSITION": 4,
            "NORMAL": 5,
            "TEXCOORD_0": 6
          },
          "indices": 7,
          "material": 1
        }
      ]
    },
    {
      "primitives": [
        {
          "mode": 4,
          "attributes": {
            "POSITION": 8,
            "NORMAL": 9,
            "TEXCOORD_0": 10
          },
          "indices": 11,
          "material": 1
        }
      ]
    },
    {
      "primitives": [
        {
          "mode": 4,
          "attributes": {
            "POSITION": 12,
            "NORMAL": 13,
            "TEXCOORD_0": 14
          },
          "indices": 15,
          "material": 1
        }
      ]
    },
    {
      "primitives": [
        {
          "mode": 4,
          "attributes": {
            "POSITION": 16,
            "NORMAL": 17,
            "TEXCOORD_0": 18
          },
          "indices": 19,
          "material": 0
        }
      ]
    },
    {
      "primitives": [
        {
          "mode": 4,
          "attributes": {
            "POSITION": 20,
            "NORMAL": 21,
            "TEXCOORD_0": 22
          },
          "indices": 23,
          "material": 0
        }
      ]
    },
    {
      "primitives": [
        {
          "mode": 4,
          "attributes": {
            "POSITION": 24,
            "NORMAL": 25,
            "TEXCOORD_0": 26
          },
          "indices": 27,
          "material": 2
        }
      ]
    },
    {
      "primitives": [
        {
          "mode": 4,
          "attributes": {
            "POSITION": 28,
            "NORMAL": 29,
            "TEXCOORD_0": 30
          },
          "indices": 31,
          "material": 1
        }
      ]
    },
    {
      "primitives": [
        {
          "mode": 4,
          "attributes": {
            "POSITION": 32,
            "NORMAL": 33,
            "TEXCOORD_0": 34
          },
          "indices": 35,
          "material": 0
        }
      ]
    },
    {
      "primitives": [
        {
          "mode": 4,
          "attributes": {
            "POSITION": 36,
            "NORMAL": 37,
            "TEXCOORD_0": 38
          },
          "indices": 39,
          "material": 1
        }
      ]
    }
  ]
}