{
    "asset" : {
        "generator" : "Khronos glTF Blender I/O v1.3.48",
        "version" : "2.0"
    },
    "scene" : 0,
    "scenes" : [
        {
            "name" : "Scene",
            "nodes" : [
                10
            ]
        }
    ],
    "nodes" : [
        {
            "mesh" : 0,
            "name" : "flower10:Mesh group15 pasted__polySurface61"
        },
        {
            "mesh" : 1,
            "name" : "flower10:Mesh group15 pasted__polySurface66"
        },
        {
            "mesh" : 2,
            "name" : "flower10:Mesh group15 pasted__polySurface68"
        },
        {
            "mesh" : 3,
            "name" : "flower12:Mesh group17 pasted__polySurface69"
        },
        {
            "mesh" : 4,
            "name" : "flower12:Mesh group17 pasted__polySurface70"
        },
        {
            "mesh" : 5,
            "name" : "flower12:Mesh group17 pasted__polySurface71"
        },
        {
            "mesh" : 6,
            "name" : "flower12:Mesh group17 pasted__polySurface75"
        },
        {
            "mesh" : 7,
            "name" : "pasted__polySurface55 flower11:Mesh group16"
        },
        {
            "mesh" : 8,
            "name" : "pasted__polySurface73 flower10:Mesh group15"
        },
        {
            "mesh" : 9,
            "name" : "pasted__polySurface74 flower12:Mesh group17"
        },
        {
            "children" : [
                0,
                1,
                2,
                3,
                4,
                5,
                6,
                7,
                8,
                9
            ],
            "name" : "Node_10"
        }
    ],
    "materials" : [
        {
            "doubleSided" : true,
            "emissiveFactor" : [
                0,
                0,
                0
            ],
            "name" : "Material.001",
            "pbrMetallicRoughness" : {
                "baseColorFactor" : [
                    0.9778255820274353,
                    0.8443690538406372,
                    1,
                    1
                ],
                "metallicFactor" : 0,
                "roughnessFactor" : 0.5
            }
        }
    ],
    "meshes" : [
        {
            "name" : "Mesh_4",
            "primitives" : [
                {
                    "attributes" : {
                        "POSITION" : 0,
                        "NORMAL" : 1,
                        "TANGENT" : 2,
                        "TEXCOORD_0" : 3
                    },
                    "indices" : 4,
                    "material" : 0
                }
            ]
        },
        {
            "name" : "Mesh_8",
            "primitives" : [
                {
                    "attributes" : {
                        "POSITION" : 5,
                        "NORMAL" : 6,
                        "TANGENT" : 7,
                        "TEXCOORD_0" : 8
                    },
                    "indices" : 4,
                    "material" : 0
                }
            ]
        },
        {
            "name" : "Mesh_5",
            "primitives" : [
                {
                    "attributes" : {
                        "POSITION" : 9,
                        "NORMAL" : 10,
                        "TANGENT" : 11,
                        "TEXCOORD_0" : 12
                    },
                    "indices" : 4,
                    "material" : 0
                }
            ]
        },
        {
            "name" : "Mesh_7",
            "primitives" : [
                {
                    "attributes" : {
                        "POSITION" : 13,
                        "NORMAL" : 14,
                        "TANGENT" : 15,
                        "TEXCOORD_0" : 16
                    },
                    "indices" : 17,
                    "material" : 0
                }
            ]
        },
        {
            "name" : "Mesh_3",
            "primitives" : [
                {
                    "attributes" : {
                        "POSITION" : 18,
                        "NORMAL" : 19,
                        "TANGENT" : 20,
                        "TEXCOORD_0" : 21
                    },
                    "indices" : 17,
                    "material" : 0
                }
            ]
        },
        {
            "name" : "Mesh_2",
            "primitives" : [
                {
                    "attributes" : {
                        "POSITION" : 22,
                        "NORMAL" : 23,
                        "TANGENT" : 24,
                        "TEXCOORD_0" : 25
                    },
                    "indices" : 17,
                    "material" : 0
                }
            ]
        },
        {
            "name" : "Mesh_9",
            "primitives" : [
                {
                    "attributes" : {
                        "POSITION" : 26,
                        "NORMAL" : 27,
                        "TANGENT" : 28,
                        "TEXCOORD_0" : 29
                    },
                    "indices" : 17,
                    "material" : 0
                }
            ]
        },
        {
            "name" : "Mesh_6",
            "primitives" : [
                {
                    "attributes" : {
                        "POSITION" : 30,
                        "NORMAL" : 31,
                        "TANGENT" : 32,
                        "TEXCOORD_0" : 33
                    },
                    "indices" : 4,
                    "material" : 0
                }
            ]
        },
        {
            "name" : "Mesh_0",
            "primitives" : [
                {
                    "attributes" : {
                        "POSITION" : 34,
                        "NORMAL" : 35,
                        "TANGENT" : 36,
                        "TEXCOORD_0" : 37
                    },
                    "indices" : 4,
                    "material" : 0
                }
            ]
        },
        {
            "name" : "Mesh_1",
            "primitives" : [
                {
                    "attributes" : {
                        "POSITION" : 38,
                        "NORMAL" : 39,
                        "TANGENT" : 40,
                        "TEXCOORD_0" : 41
                    },
                    "indices" : 17,
                    "material" : 0
                }
            ]
        }
    ],
    "accessors" : [
        {
            "bufferView" : 0,
            "componentType" : 5126,
            "count" : 744,
            "max" : [
                0.842628002166748,
                5.068421840667725,
                0.0031679999083280563
            ],
            "min" : [
                0.33756500482559204,
                4.410806179046631,
                -0.536221981048584
            ],
            "type" : "VEC3"
        },
        {
            "bufferView" : 1,
            "componentType" : 5126,
            "count" : 744,
            "type" : "VEC3"
        },
        {
            "bufferView" : 2,
            "componentType" : 5126,
            "count" : 744,
            "type" : "VEC4"
        },
        {
            "bufferView" : 3,
            "componentType" : 5126,
            "count" : 744,
            "type" : "VEC2"
        },
        {
            "bufferView" : 4,
            "componentType" : 5123,
            "count" : 744,
            "type" : "SCALAR"
        },
        {
            "bufferView" : 5,
            "componentType" : 5126,
            "count" : 744,
            "max" : [
                0.10537400096654892,
                3.4576470851898193,
                6.019144058227539
            ],
            "min" : [
                -0.46121299266815186,
                2.6965858936309814,
                5.749125003814697
            ],
            "type" : "VEC3"
        },
        {
            "bufferView" : 6,
            "componentType" : 5126,
            "count" : 744,
            "type" : "VEC3"
        },
        {
            "bufferView" : 7,
            "componentType" : 5126,
            "count" : 744,
            "type" : "VEC4"
        },
        {
            "bufferView" : 8,
            "componentType" : 5126,
            "count" : 744,
            "type" : "VEC2"
        },
        {
            "bufferView" : 9,
            "componentType" : 5126,
            "count" : 744,
            "max" : [
                2.48935604095459,
                4.953281879425049,
                -1.2543840408325195
            ],
            "min" : [
                2.2623579502105713,
                4.484731197357178,
                -1.5832949876785278
            ],
            "type" : "VEC3"
        },
        {
            "bufferView" : 10,
            "componentType" : 5126,
            "count" : 744,
            "type" : "VEC3"
        },
        {
            "bufferView" : 11,
            "componentType" : 5126,
            "count" : 744,
            "type" : "VEC4"
        },
        {
            "bufferView" : 12,
            "componentType" : 5126,
            "count" : 744,
            "type" : "VEC2"
        },
        {
            "bufferView" : 13,
            "componentType" : 5126,
            "count" : 684,
            "max" : [
                2.6991899013519287,
                5.644935131072998,
                4.42625617980957
            ],
            "min" : [
                2.5704190731048584,
                5.407764911651611,
                3.850275993347168
            ],
            "type" : "VEC3"
        },
        {
            "bufferView" : 14,
            "componentType" : 5126,
            "count" : 684,
            "type" : "VEC3"
        },
        {
            "bufferView" : 15,
            "componentType" : 5126,
            "count" : 684,
            "type" : "VEC4"
        },
        {
            "bufferView" : 16,
            "componentType" : 5126,
            "count" : 684,
            "type" : "VEC2"
        },
        {
            "bufferView" : 17,
            "componentType" : 5123,
            "count" : 684,
            "type" : "SCALAR"
        },
        {
            "bufferView" : 18,
            "componentType" : 5126,
            "count" : 684,
            "max" : [
                2.4492270946502686,
                5.004497051239014,
                -4.820897102355957
            ],
            "min" : [
                1.902461051940918,
                4.7828450202941895,
                -5.031896114349365
            ],
            "type" : "VEC3"
        },
        {
            "bufferView" : 19,
            "componentType" : 5126,
            "count" : 684,
            "type" : "VEC3"
        },
        {
            "bufferView" : 20,
            "componentType" : 5126,
            "count" : 684,
            "type" : "VEC4"
        },
        {
            "bufferView" : 21,
            "componentType" : 5126,
            "count" : 684,
            "type" : "VEC2"
        },
        {
            "bufferView" : 22,
            "componentType" : 5126,
            "count" : 684,
            "max" : [
                -1.2782390117645264,
                4.679055213928223,
                -2.6032350063323975
            ],
            "min" : [
                -1.5859379768371582,
                4.439104080200195,
                -3.104949951171875
            ],
            "type" : "VEC3"
        },
        {
            "bufferView" : 23,
            "componentType" : 5126,
            "count" : 684,
            "type" : "VEC3"
        },
        {
            "bufferView" : 24,
            "componentType" : 5126,
            "count" : 684,
            "type" : "VEC4"
        },
        {
            "bufferView" : 25,
            "componentType" : 5126,
            "count" : 684,
            "type" : "VEC2"
        },
        {
            "bufferView" : 26,
            "componentType" : 5126,
            "count" : 684,
            "max" : [
                2.1253790855407715,
                0.3924790024757385,
                10.892091751098633
            ],
            "min" : [
                1.6644920110702515,
                0.19016799330711365,
                10.5059175491333
            ],
            "type" : "VEC3"
        },
        {
            "bufferView" : 27,
            "componentType" : 5126,
            "count" : 684,
            "type" : "VEC3"
        },
        {
            "bufferView" : 28,
            "componentType" : 5126,
            "count" : 684,
            "type" : "VEC4"
        },
        {
            "bufferView" : 29,
            "componentType" : 5126,
            "count" : 684,
            "type" : "VEC2"
        },
        {
            "bufferView" : 30,
            "componentType" : 5126,
            "count" : 744,
            "max" : [
                0.07854200154542923,
                4.018094062805176,
                4.072897911071777
            ],
            "min" : [
                -0.18608899414539337,
                3.41920804977417,
                3.798748016357422
            ],
            "type" : "VEC3"
        },
        {
            "bufferView" : 31,
            "componentType" : 5126,
            "count" : 744,
            "type" : "VEC3"
        },
        {
            "bufferView" : 32,
            "componentType" : 5126,
            "count" : 744,
            "type" : "VEC4"
        },
        {
            "bufferView" : 33,
            "componentType" : 5126,
            "count" : 744,
            "type" : "VEC2"
        },
        {
            "bufferView" : 34,
            "componentType" : 5126,
            "count" : 744,
            "max" : [
                2.4402310848236084,
                6.164367198944092,
                -6.66294002532959
            ],
            "min" : [
                2.074786901473999,
                5.317883014678955,
                -6.926333904266357
            ],
            "type" : "VEC3"
        },
        {
            "bufferView" : 35,
            "componentType" : 5126,
            "count" : 744,
            "type" : "VEC3"
        },
        {
            "bufferView" : 36,
            "componentType" : 5126,
            "count" : 744,
            "type" : "VEC4"
        },
        {
            "bufferView" : 37,
            "componentType" : 5126,
            "count" : 744,
            "type" : "VEC2"
        },
        {
            "bufferView" : 38,
            "componentType" : 5126,
            "count" : 684,
            "max" : [
                -2.180056095123291,
                7.063868045806885,
                -4.772971153259277
            ],
            "min" : [
                -2.6991329193115234,
                6.839594841003418,
                -5.044675827026367
            ],
            "type" : "VEC3"
        },
        {
            "bufferView" : 39,
            "componentType" : 5126,
            "count" : 684,
            "type" : "VEC3"
        },
        {
            "bufferView" : 40,
            "componentType" : 5126,
            "count" : 684,
            "type" : "VEC4"
        },
        {
            "bufferView" : 41,
            "componentType" : 5126,
            "count" : 684,
            "type" : "VEC2"
        }
    ],
    "bufferViews" : [
        {
            "buffer" : 0,
            "byteLength" : 8928,
            "byteOffset" : 0
        },
        {
            "buffer" : 0,
            "byteLength" : 8928,
            "byteOffset" : 8928
        },
        {
            "buffer" : 0,
            "byteLength" : 11904,
            "byteOffset" : 17856
        },
        {
            "buffer" : 0,
            "byteLength" : 5952,
            "byteOffset" : 29760
        },
        {
            "buffer" : 0,
            "byteLength" : 1488,
            "byteOffset" : 35712
        },
        {
            "buffer" : 0,
            "byteLength" : 8928,
            "byteOffset" : 37200
        },
        {
            "buffer" : 0,
            "byteLength" : 8928,
            "byteOffset" : 46128
        },
        {
            "buffer" : 0,
            "byteLength" : 11904,
            "byteOffset" : 55056
        },
        {
            "buffer" : 0,
            "byteLength" : 5952,
            "byteOffset" : 66960
        },
        {
            "buffer" : 0,
            "byteLength" : 8928,
            "byteOffset" : 72912
        },
        {
            "buffer" : 0,
            "byteLength" : 8928,
            "byteOffset" : 81840
        },
        {
            "buffer" : 0,
            "byteLength" : 11904,
            "byteOffset" : 90768
        },
        {
            "buffer" : 0,
            "byteLength" : 5952,
            "byteOffset" : 102672
        },
        {
            "buffer" : 0,
            "byteLength" : 8208,
            "byteOffset" : 108624
        },
        {
            "buffer" : 0,
            "byteLength" : 8208,
            "byteOffset" : 116832
        },
        {
            "buffer" : 0,
            "byteLength" : 10944,
            "byteOffset" : 125040
        },
        {
            "buffer" : 0,
            "byteLength" : 5472,
            "byteOffset" : 135984
        },
        {
            "buffer" : 0,
            "byteLength" : 1368,
            "byteOffset" : 141456
        },
        {
            "buffer" : 0,
            "byteLength" : 8208,
            "byteOffset" : 142824
        },
        {
            "buffer" : 0,
            "byteLength" : 8208,
            "byteOffset" : 151032
        },
        {
            "buffer" : 0,
            "byteLength" : 10944,
            "byteOffset" : 159240
        },
        {
            "buffer" : 0,
            "byteLength" : 5472,
            "byteOffset" : 170184
        },
        {
            "buffer" : 0,
            "byteLength" : 8208,
            "byteOffset" : 175656
        },
        {
            "buffer" : 0,
            "byteLength" : 8208,
            "byteOffset" : 183864
        },
        {
            "buffer" : 0,
            "byteLength" : 10944,
            "byteOffset" : 192072
        },
        {
            "buffer" : 0,
            "byteLength" : 5472,
            "byteOffset" : 203016
        },
        {
            "buffer" : 0,
            "byteLength" : 8208,
            "byteOffset" : 208488
        },
        {
            "buffer" : 0,
            "byteLength" : 8208,
            "byteOffset" : 216696
        },
        {
            "buffer" : 0,
            "byteLength" : 10944,
            "byteOffset" : 224904
        },
        {
            "buffer" : 0,
            "byteLength" : 5472,
            "byteOffset" : 235848
        },
        {
            "buffer" : 0,
            "byteLength" : 8928,
            "byteOffset" : 241320
        },
        {
            "buffer" : 0,
            "byteLength" : 8928,
            "byteOffset" : 250248
        },
        {
            "buffer" : 0,
            "byteLength" : 11904,
            "byteOffset" : 259176
        },
        {
            "buffer" : 0,
            "byteLength" : 5952,
            "byteOffset" : 271080
        },
        {
            "buffer" : 0,
            "byteLength" : 8928,
            "byteOffset" : 277032
        },
        {
            "buffer" : 0,
            "byteLength" : 8928,
            "byteOffset" : 285960
        },
        {
            "buffer" : 0,
            "byteLength" : 11904,
            "byteOffset" : 294888
        },
        {
            "buffer" : 0,
            "byteLength" : 5952,
            "byteOffset" : 306792
        },
        {
            "buffer" : 0,
            "byteLength" : 8208,
            "byteOffset" : 312744
        },
        {
            "buffer" : 0,
            "byteLength" : 8208,
            "byteOffset" : 320952
        },
        {
            "buffer" : 0,
            "byteLength" : 10944,
            "byteOffset" : 329160
        },
        {
            "buffer" : 0,
            "byteLength" : 5472,
            "byteOffset" : 340104
        }
    ],
    "buffers" : [
        {
            "byteLength" : 345576,
            "uri" : "data:application/octet-stream;base64,"
        }
    ]
}
