{
  "asset": {
    "version": "2.0",
    "generator": "THREE.GLTFExporter"
  },
  "scenes": [
    {
      "nodes": [
        2
      ],
      "name": "AuxScene"
    }
  ],
  "scene": 0,
  "nodes": [
    {
      "name": "Mesh",
      "mesh": 0
    },
    {
      "name": "EXP_M18Smoke:Mesh",
      "mesh": 1
    },
    {
      "children": [
        0,
        1
      ]
    }
  ],
  "bufferViews": [
    {
      "buffer": 0,
      "byteOffset": 0,
      "byteLength": 90000,
      "target": 34962,
      "byteStride": 12
    },
    {
      "buffer": 0,
      "byteOffset": 90000,
      "byteLength": 90000,
      "target": 34962,
      "byteStride": 12
    },
    {
      "buffer": 0,
      "byteOffset": 180000,
      "byteLength": 60000,
      "target": 34962,
      "byteStride": 8
    },
    {
      "buffer": 0,
      "byteOffset": 240000,
      "byteLength": 15000,
      "target": 34963
    },
    {
      "buffer": 0,
      "byteOffset": 255000,
      "byteLength": 90000,
      "target": 34962,
      "byteStride": 12
    },
    {
      "buffer": 0,
      "byteOffset": 345000,
      "byteLength": 90000,
      "target": 34962,
      "byteStride": 12
    },
    {
      "buffer": 0,
      "byteOffset": 435000,
      "byteLength": 60000,
      "target": 34962,
      "byteStride": 8
    },
    {
      "buffer": 0,
      "byteOffset": 495000,
      "byteLength": 15000,
      "target": 34963
    }
  ],
  "buffers": [
    {
      "byteLength": 510000,
      "uri": "data:application/octet-stream;base64,"
    }
  ],
  "accessors": [
    {
      "bufferView": 0,
      "componentType": 5126,
      "count": 7500,
      "max": [
        0.4666230082511902,
        2.6702139377593994,
        -2.8736469745635986
      ],
      "min": [
        -1.7931389808654785,
        0.007548000197857618,
        -4.582180023193359
      ],
      "type": "VEC3"
    },
    {
      "bufferView": 1,
      "componentType": 5126,
      "count": 7500,
      "max": [
        0.996641993522644,
        0.9970239996910095,
        0.9986960291862488
      ],
      "min": [
        -0.9961150288581848,
        -0.9977269768714905,
        -0.9916840195655823
      ],
      "type": "VEC3"
    },
    {
      "bufferView": 2,
      "componentType": 5126,
      "count": 7500,
      "max": [
        0.9938399791717529,
        0.9751060009002686
      ],
      "min": [
        0.0061599998734891415,
        0.0061599998734891415
      ],
      "type": "VEC2"
    },
    {
      "bufferView": 3,
      "componentType": 5123,
      "count": 7500,
      "max": [
        7499
      ],
      "min": [
        0
      ],
      "type": "SCALAR"
    },
    {
      "bufferView": 4,
      "componentType": 5126,
      "count": 7500,
      "max": [
        0.7700269818305969,
        1.2028900384902954,
        -2.2054569721221924
      ],
      "min": [
        -0.4520399868488312,
        -0.07558900117874146,
        -4.945318222045898
      ],
      "type": "VEC3"
    },
    {
      "bufferView": 5,
      "componentType": 5126,
      "count": 7500,
      "max": [
        1,
        0.999908983707428,
        0.9997490048408508
      ],
      "min": [
        -1,
        -0.9998999834060669,
        -0.9993759989738464
      ],
      "type": "VEC3"
    },
    {
      "bufferView": 6,
      "componentType": 5126,
      "count": 7500,
      "max": [
        0.9938399791717529,
        0.9751060009002686
      ],
      "min": [
        0.0061599998734891415,
        0.0061599998734891415
      ],
      "type": "VEC2"
    },
    {
      "bufferView": 7,
      "componentType": 5123,
      "count": 7500,
      "max": [
        7499
      ],
      "min": [
        0
      ],
      "type": "SCALAR"
    }
  ],
  "materials": [
    {
      "pbrMetallicRoughness": {
        "metallicFactor": 0.5,
        "roughnessFactor": 0.5
      },
      "name": "initialShadingGroup"
    }
  ],
  "meshes": [
    {
      "primitives": [
        {
          "mode": 4,
          "attributes": {
            "POSITION": 0,
            "NORMAL": 1,
            "TEXCOORD_0": 2
          },
          "indices": 3,
          "material": 0
        }
      ]
    },
    {
      "primitives": [
        {
          "mode": 4,
          "attributes": {
            "POSITION": 4,
            "NORMAL": 5,
            "TEXCOORD_0": 6
          },
          "indices": 7,
          "material": 0
        }
      ]
    }
  ]
}