{
  "accessors": [
    {
      "bufferView": 2,
      "componentType": 5126,
      "count": 65532,
      "max": [
        11.611468315124512,
        2.5450406074523926,
        10.600093841552734
      ],
      "min": [
        0,
        0,
        0.011535048484802246
      ],
      "type": "VEC3"
    },
    {
      "bufferView": 2,
      "byteOffset": 786384,
      "componentType": 5126,
      "count": 65532,
      "max": [
        0.99999672174453735,
        0.99999910593032837,
        0.99996101856231689
      ],
      "min": [
        -0.99995428323745728,
        -0.99458718299865723,
        -0.99983268976211548
      ],
      "type": "VEC3"
    },
    {
      "bufferView": 3,
      "componentType": 5126,
      "count": 65532,
      "max": [
        0.99999606609344482,
        0.99998831748962402,
        0.99999988079071045,
        1
      ],
      "min": [
        -0.99999141693115234,
        -0.99998068809509277,
        -0.99991792440414429,
        -1
      ],
      "type": "VEC4"
    },
    {
      "bufferView": 1,
      "componentType": 5126,
      "count": 65532,
      "max": [
        0.99586600065231323,
        0.99890100955963135
      ],
      "min": [
        0.0035230000503361225,
        0.0033150000963360071
      ],
      "type": "VEC2"
    },
    {
      "bufferView": 0,
      "componentType": 5125,
      "count": 341433,
      "max": [
        65531
      ],
      "min": [
        0
      ],
      "type": "SCALAR"
    },
    {
      "bufferView": 2,
      "byteOffset": 1572768,
      "componentType": 5126,
      "count": 45761,
      "max": [
        11.655158042907715,
        2.5624322891235352,
        10.614161491394043
      ],
      "min": [
        0,
        0.28522968292236328,
        0
      ],
      "type": "VEC3"
    },
    {
      "bufferView": 2,
      "byteOffset": 2121900,
      "componentType": 5126,
      "count": 45761,
      "max": [
        0.99999672174453735,
        0.99998939037322998,
        0.99995917081832886
      ],
      "min": [
        -0.99999958276748657,
        -0.99994158744812012,
        -0.99983268976211548
      ],
      "type": "VEC3"
    },
    {
      "bufferView": 3,
      "byteOffset": 1048512,
      "componentType": 5126,
      "count": 45761,
      "max": [
        0.99999678134918213,
        0.99990808963775635,
        0.99999988079071045,
        1
      ],
      "min": [
        -0.99998056888580322,
        -0.99998152256011963,
        -0.99993211030960083,
        -1
      ],
      "type": "VEC4"
    },
    {
      "bufferView": 1,
      "byteOffset": 524256,
      "componentType": 5126,
      "count": 45761,
      "max": [
        0.98213601112365723,
        0.9986870288848877
      ],
      "min": [
        0.0081259999424219131,
        0.0039180000312626362
      ],
      "type": "VEC2"
    },
    {
      "bufferView": 0,
      "byteOffset": 1365732,
      "componentType": 5125,
      "count": 221235,
      "max": [
        45760
      ],
      "min": [
        0
      ],
      "type": "SCALAR"
    }
  ],
  "asset": {
    "extras": {
      "author": "adamcrockett (https://sketchfab.com/adamcrockett)",
      "license": "CC-BY-4.0 (http://creativecommons.org/licenses/by/4.0/)",
      "source": "https://sketchfab.com/models/d2b69c58066a423db9fda0f1fa4e98dc",
      "title": "Cracked Concrete Block"
    },
    "generator": "Sketchfab-3.18.5",
    "version": "2.0"
  },
  "bufferViews": [
    {
      "buffer": 0,
      "byteLength": 2250672,
      "byteOffset": 0,
      "name": "floatBufferViews",
      "target": 34963
    },
    {
      "buffer": 0,
      "byteLength": 890344,
      "byteOffset": 2250672,
      "byteStride": 8,
      "name": "floatBufferViews",
      "target": 34962
    },
    {
      "buffer": 0,
      "byteLength": 2671032,
      "byteOffset": 3141016,
      "byteStride": 12,
      "name": "floatBufferViews",
      "target": 34962
    },
    {
      "buffer": 0,
      "byteLength": 1780688,
      "byteOffset": 5812048,
      "byteStride": 16,
      "name": "floatBufferViews",
      "target": 34962
    }
  ],
  "buffers": [
    {
      "byteLength": 7592736,
      "uri": "scene.bin"
    }
  ],
  "extensionsUsed": [
    "KHR_materials_unlit"
  ],
  "images": [
    {
      "uri": "textures/material_0_baseColor.jpeg"
    }
  ],
  "materials": [
    {
      "doubleSided": true,
      "emissiveFactor": [
        0,
        0,
        0
      ],
      "extensions": {
        "KHR_materials_unlit": {}
      },
      "name": "material_0",
      "pbrMetallicRoughness": {
        "baseColorFactor": [
          1,
          1,
          1,
          1
        ],
        "baseColorTexture": {
          "index": 0,
          "texCoord": 0
        },
        "metallicFactor": 0,
        "roughnessFactor": 1
      }
    }
  ],
  "meshes": [
    {
      "primitives": [
        {
          "attributes": {
            "NORMAL": 1,
            "POSITION": 0,
            "TANGENT": 2,
            "TEXCOORD_0": 3
          },
          "indices": 4,
          "material": 0,
          "mode": 4
        }
      ]
    },
    {
      "primitives": [
        {
          "attributes": {
            "NORMAL": 6,
            "POSITION": 5,
            "TANGENT": 7,
            "TEXCOORD_0": 8
          },
          "indices": 9,
          "material": 0,
          "mode": 4
        }
      ]
    }
  ],
  "nodes": [
    {
      "children": [
        1
      ],
      "name": "RootNode (gltf orientation matrix)",
      "rotation": [
        -0.70710678118654746,
        -0,
        -0,
        0.70710678118654757
      ]
    },
    {
      "children": [
        2
      ],
      "matrix": [
        1,
        0,
        0,
        0,
        0,
        -0.00527152419090271,
        0.99998611211776733,
        0,
        0,
        -0.99998611211776733,
        -0.00527152419090271,
        0,
        0,
        -1.0417591333389282,
        14.803664207458496,
        1
      ],
      "name": "RootNode (model correction matrix)"
    },
    {
      "children": [
        3,
        4
      ],
      "matrix": [
        1,
        0,
        0,
        0,
        0,
        1,
        0,
        0,
        0,
        0,
        1,
        0,
        -3.5089728832244873,
        -9.1650114059448242,
        1.5766229629516602,
        1
      ],
      "name": "model.obj.cleaner.gles"
    },
    {
      "mesh": 0,
      "name": ""
    },
    {
      "mesh": 1,
      "name": ""
    }
  ],
  "samplers": [
    {
      "magFilter": 9729,
      "minFilter": 9987,
      "wrapS": 10497,
      "wrapT": 10497
    }
  ],
  "scene": 0,
  "scenes": [
    {
      "name": "OSG_Scene",
      "nodes": [
        0
      ]
    }
  ],
  "textures": [
    {
      "sampler": 0,
      "source": 0
    }
  ]
}

